<svg width="1080" height="1920" viewBox="0 0 1080 1920" fill="none" xmlns="http://www.w3.org/2000/svg">
<g clip-path="url(#clip0_48_1086)">
<rect width="1080" height="1920" fill="black" style="fill:black;fill-opacity:1;"/>
<path d="M74 95.5H58V91.5H74V87.5H62V83.5H58V71.5H62V83.5H74V71.5H78V91.5H74V95.5ZM86.3717 95.5H82.3717V71.5H86.3717V75.5H90.3717V79.5H86.3717V83.5H98.3717V75.5H90.3717V71.5H98.3717V75.5H102.372V83.5H98.3717V87.5H86.3717V95.5ZM122.743 91.5H110.743V87.5H122.743V75.5H110.743V87.5H106.743V75.5H110.743V71.5H122.743V75.5H126.743V87.5H122.743V91.5ZM147.115 91.5H131.115V71.5H147.115V75.5H135.115V79.5H147.115V75.5H151.115V79.5H147.115V83.5H135.115V87.5H147.115V83.5H151.115V87.5H147.115V91.5ZM175.487 91.5H159.487V87.5H155.487V75.5H159.487V79.5H171.487V75.5H159.487V71.5H171.487V75.5H175.487V83.5H159.487V87.5H175.487V91.5ZM183.859 91.5H179.859V71.5H183.859V79.5H195.859V71.5H199.859V91.5H195.859V83.5H183.859V91.5ZM220.23 91.5H204.23V71.5H208.23V79.5H220.23V83.5H208.23V87.5H220.23V83.5H224.23V87.5H220.23V91.5ZM240.602 75.5H236.602V71.5H240.602V75.5ZM240.602 91.5H236.602V87.5H240.602V91.5Z" fill="#C2B9FA" fill-opacity="0.5" style="fill:#C2B9FA;fill:color(display-p3 0.7608 0.7255 0.9804);fill-opacity:0.5;"/>
<path d="M297.345 91.5H277.345V87.5H285.345V71.5H281.345V67.5H285.345V63.5H289.345V87.5H297.345V91.5Z" fill="#F2EB98" style="fill:#F2EB98;fill:color(display-p3 0.9490 0.9216 0.5961);fill-opacity:1;"/>
<path d="M409.5 91.5H393.5V71.5H409.5V75.5H397.5V79.5H409.5V75.5H413.5V79.5H409.5V83.5H397.5V87.5H409.5V83.5H413.5V87.5H409.5V91.5ZM421.872 95.5H417.872V71.5H421.872V75.5H425.872V79.5H421.872V83.5H433.872V75.5H425.872V71.5H433.872V75.5H437.872V83.5H433.872V87.5H421.872V95.5ZM462.243 91.5H446.243V87.5H442.243V75.5H446.243V79.5H458.243V75.5H446.243V71.5H458.243V75.5H462.243V83.5H446.243V87.5H462.243V91.5ZM470.615 91.5H466.615V71.5H470.615V75.5H474.615V79.5H478.615V75.5H482.615V71.5H486.615V91.5H482.615V79.5H478.615V83.5H474.615V79.5H470.615V91.5ZM494.987 91.5H490.987V83.5H494.987V79.5H506.987V75.5H494.987V79.5H490.987V75.5H494.987V71.5H510.987V91.5H506.987V83.5H494.987V91.5ZM527.359 75.5H523.359V71.5H527.359V75.5ZM527.359 91.5H523.359V87.5H527.359V91.5Z" fill="#C2B9FA" fill-opacity="0.5" style="fill:#C2B9FA;fill:color(display-p3 0.7608 0.7255 0.9804);fill-opacity:0.5;"/>
<path d="M580.102 91.5H568.102V87.5H580.102V75.5H576.102V79.5H572.102V83.5H568.102V87.5H564.102V67.5H568.102V79.5H572.102V75.5H576.102V71.5H580.102V67.5H568.102V63.5H580.102V67.5H584.102V87.5H580.102V91.5ZM608.474 91.5H588.474V83.5H592.474V79.5H596.474V75.5H604.474V67.5H592.474V71.5H588.474V67.5H592.474V63.5H604.474V67.5H608.474V75.5H604.474V79.5H596.474V83.5H592.474V87.5H604.474V83.5H608.474V91.5ZM624.845 75.5H620.845V71.5H624.845V75.5ZM624.845 91.5H620.845V87.5H624.845V91.5ZM657.217 91.5H637.217V83.5H641.217V79.5H645.217V75.5H653.217V67.5H641.217V71.5H637.217V67.5H641.217V63.5H653.217V67.5H657.217V75.5H653.217V79.5H645.217V83.5H641.217V87.5H653.217V83.5H657.217V91.5ZM677.589 91.5H665.589V87.5H661.589V83.5H665.589V87.5H677.589V79.5H669.589V75.5H677.589V67.5H665.589V71.5H661.589V67.5H665.589V63.5H677.589V67.5H681.589V75.5H677.589V79.5H681.589V87.5H677.589V91.5Z" fill="#F2EB98" style="fill:#F2EB98;fill:color(display-p3 0.9490 0.9216 0.5961);fill-opacity:1;"/>
<path d="M770 76H766V72H750V52H754V68H762V52H766V68H770V76ZM794.372 72H778.372V68H774.372V56H778.372V60H790.372V56H778.372V52H790.372V56H794.372V64H778.372V68H794.372V72ZM802.743 72H798.743V68H802.743V52H818.743V72H814.743V56H806.743V68H802.743V72ZM839.115 72H823.115V52H827.115V60H839.115V64H827.115V68H839.115V64H843.115V68H839.115V72ZM859.487 56H855.487V52H859.487V56ZM859.487 72H855.487V68H859.487V72Z" fill="#C2B9FA" fill-opacity="0.5" style="fill:#C2B9FA;fill:color(display-p3 0.7608 0.7255 0.9804);fill-opacity:0.5;"/>
<rect width="45" height="135" transform="translate(882 75) rotate(-90)" fill="#F6C578" style="fill:#F6C578;fill:color(display-p3 0.9647 0.7725 0.4706);fill-opacity:1;"/>
<rect width="45" height="90" transform="translate(972 30)" fill="#F6C578" style="fill:#F6C578;fill:color(display-p3 0.9647 0.7725 0.4706);fill-opacity:1;"/>
<g filter="url(#filter0_ii_48_1086)">
<rect width="1080" height="30" transform="translate(0 150)" fill="#4388F6" style="fill:#4388F6;fill:color(display-p3 0.2627 0.5333 0.9647);fill-opacity:1;"/>
<g clip-path="url(#clip1_48_1086)">
<rect width="1080" height="30" transform="translate(0 150)" fill="#9487DF" style="fill:#9487DF;fill:color(display-p3 0.5804 0.5294 0.8745);fill-opacity:1;"/>
<rect y="145" width="296" height="40" fill="#F4EB8C" style="fill:#F4EB8C;fill:color(display-p3 0.9569 0.9216 0.5490);fill-opacity:1;"/>
</g>
</g>
<path d="M549 305H531V251H513V269H495V251H513V233H531V215H549V233H567V251H585V269H567V251H549V305Z" fill="#9487DF" style="fill:#9487DF;fill:color(display-p3 0.5804 0.5294 0.8745);fill-opacity:1;"/>
<g clip-path="url(#clip2_48_1086)">
<g clip-path="url(#clip3_48_1086)">
<rect x="459" y="1800" width="120" height="120" transform="rotate(30 459 1800)" fill="#D9D9D9" style="fill:#D9D9D9;fill:color(display-p3 0.8510 0.8510 0.8510);fill-opacity:1;"/>
<rect x="724.525" y="1800" width="120" height="120" transform="rotate(53.5498 724.525 1800)" fill="#D9D9D9" style="fill:#D9D9D9;fill:color(display-p3 0.8510 0.8510 0.8510);fill-opacity:1;"/>
</g>
</g>
<mask id="path-8-inside-1_48_1086" fill="white">
<path d="M0 1800H1080V1920H0V1800Z"/>
</mask>
<path d="M0 1800V1810H1080V1800V1790H0V1800Z" fill="#F2EB98" style="fill:#F2EB98;fill:color(display-p3 0.9490 0.9216 0.5961);fill-opacity:1;" mask="url(#path-8-inside-1_48_1086)"/>
<path d="M263.5 1876.5H259.5V1860.5H263.5V1856.5H275.5V1852.5H263.5V1856.5H259.5V1852.5H263.5V1848.5H279.5V1876.5H275.5V1860.5H263.5V1876.5ZM287.872 1876.5H283.872V1856.5H287.872V1864.5H299.872V1856.5H303.872V1876.5H299.872V1868.5H287.872V1876.5ZM312.243 1880.5H308.243V1872.5H312.243V1864.5H316.243V1872.5H324.243V1860.5H320.243V1864.5H316.243V1856.5H328.243V1880.5H324.243V1876.5H312.243V1880.5ZM352.615 1876.5H336.615V1872.5H332.615V1860.5H336.615V1864.5H348.615V1860.5H336.615V1856.5H348.615V1860.5H352.615V1868.5H336.615V1872.5H352.615V1876.5ZM360.987 1876.5H356.987V1856.5H360.987V1864.5H368.987V1860.5H372.987V1856.5H376.987V1860.5H372.987V1864.5H368.987V1868.5H372.987V1872.5H376.987V1876.5H372.987V1872.5H368.987V1868.5H360.987V1876.5ZM397.359 1876.5H385.359V1872.5H381.359V1860.5H385.359V1856.5H397.359V1860.5H401.359V1864.5H397.359V1860.5H385.359V1872.5H397.359V1868.5H401.359V1872.5H397.359V1876.5ZM446.102 1876.5H434.102V1872.5H446.102V1852.5H434.102V1872.5H430.102V1852.5H434.102V1848.5H446.102V1852.5H450.102V1872.5H446.102V1876.5ZM470.474 1876.5H458.474V1872.5H470.474V1860.5H458.474V1872.5H454.474V1852.5H458.474V1848.5H474.474V1852.5H458.474V1856.5H470.474V1860.5H474.474V1872.5H470.474V1876.5ZM482.845 1880.5H478.845V1856.5H482.845V1860.5H486.845V1864.5H482.845V1868.5H494.845V1860.5H486.845V1856.5H494.845V1860.5H498.845V1868.5H494.845V1872.5H482.845V1880.5ZM523.217 1876.5H507.217V1872.5H519.217V1868.5H507.217V1872.5H503.217V1868.5H507.217V1864.5H519.217V1860.5H507.217V1856.5H519.217V1860.5H523.217V1876.5ZM543.589 1876.5H531.589V1872.5H527.589V1868.5H531.589V1872.5H543.589V1868.5H535.589V1864.5H543.589V1860.5H531.589V1864.5H527.589V1860.5H531.589V1856.5H543.589V1860.5H547.589V1864.5H543.589V1868.5H547.589V1872.5H543.589V1876.5ZM567.961 1876.5H555.961V1872.5H567.961V1860.5H555.961V1872.5H551.961V1860.5H555.961V1856.5H567.961V1860.5H571.961V1872.5H567.961V1876.5ZM592.332 1876.5H576.332V1856.5H592.332V1860.5H580.332V1864.5H592.332V1860.5H596.332V1864.5H592.332V1868.5H580.332V1872.5H592.332V1868.5H596.332V1872.5H592.332V1876.5ZM620.704 1876.5H604.704V1872.5H616.704V1868.5H604.704V1872.5H600.704V1868.5H604.704V1864.5H616.704V1860.5H604.704V1856.5H616.704V1860.5H620.704V1876.5ZM629.076 1876.5H625.076V1856.5H629.076V1864.5H641.076V1856.5H645.076V1876.5H641.076V1868.5H629.076V1876.5ZM653.448 1876.5H649.448V1856.5H653.448V1868.5H657.448V1864.5H661.448V1860.5H665.448V1856.5H669.448V1876.5H665.448V1864.5H661.448V1868.5H657.448V1872.5H653.448V1876.5ZM693.819 1876.5H677.819V1872.5H673.819V1860.5H677.819V1864.5H689.819V1860.5H677.819V1856.5H689.819V1860.5H693.819V1868.5H677.819V1872.5H693.819V1876.5ZM742.563 1876.5H722.563V1868.5H726.563V1864.5H730.563V1860.5H738.563V1852.5H726.563V1856.5H722.563V1852.5H726.563V1848.5H738.563V1852.5H742.563V1860.5H738.563V1864.5H730.563V1868.5H726.563V1872.5H738.563V1868.5H742.563V1876.5ZM762.934 1876.5H750.934V1872.5H762.934V1860.5H758.934V1864.5H754.934V1868.5H750.934V1872.5H746.934V1852.5H750.934V1864.5H754.934V1860.5H758.934V1856.5H762.934V1852.5H750.934V1848.5H762.934V1852.5H766.934V1872.5H762.934V1876.5ZM791.306 1876.5H771.306V1868.5H775.306V1864.5H779.306V1860.5H787.306V1852.5H775.306V1856.5H771.306V1852.5H775.306V1848.5H787.306V1852.5H791.306V1860.5H787.306V1864.5H779.306V1868.5H775.306V1872.5H787.306V1868.5H791.306V1876.5ZM811.678 1876.5H799.678V1872.5H811.678V1864.5H799.678V1872.5H795.678V1856.5H799.678V1852.5H803.678V1848.5H811.678V1852.5H803.678V1856.5H799.678V1860.5H811.678V1864.5H815.678V1872.5H811.678V1876.5Z" fill="#F2EB98" style="fill:#F2EB98;fill:color(display-p3 0.9490 0.9216 0.5961);fill-opacity:1;"/>
</g>
<defs>
<filter id="filter0_ii_48_1086" x="0" y="150" width="1080" height="30" filterUnits="userSpaceOnUse" color-interpolation-filters="sRGB">
<feFlood flood-opacity="0" result="BackgroundImageFix"/>
<feBlend mode="normal" in="SourceGraphic" in2="BackgroundImageFix" result="shape"/>
<feColorMatrix in="SourceAlpha" type="matrix" values="0 0 0 0 0 0 0 0 0 0 0 0 0 0 0 0 0 0 127 0" result="hardAlpha"/>
<feOffset dx="10" dy="10"/>
<feComposite in2="hardAlpha" operator="arithmetic" k2="-1" k3="1"/>
<feColorMatrix type="matrix" values="0 0 0 0 1 0 0 0 0 1 0 0 0 0 1 0 0 0 0.5 0"/>
<feBlend mode="normal" in2="shape" result="effect1_innerShadow_48_1086"/>
<feColorMatrix in="SourceAlpha" type="matrix" values="0 0 0 0 0 0 0 0 0 0 0 0 0 0 0 0 0 0 127 0" result="hardAlpha"/>
<feOffset dx="-10" dy="-10"/>
<feComposite in2="hardAlpha" operator="arithmetic" k2="-1" k3="1"/>
<feColorMatrix type="matrix" values="0 0 0 0 0 0 0 0 0 0 0 0 0 0 0 0 0 0 0.25 0"/>
<feBlend mode="normal" in2="effect1_innerShadow_48_1086" result="effect2_innerShadow_48_1086"/>
</filter>
<clipPath id="clip0_48_1086">
<rect width="1080" height="1920" fill="white" style="fill:white;fill-opacity:1;"/>
</clipPath>
<clipPath id="clip1_48_1086">
<rect width="1080" height="30" fill="white" style="fill:white;fill-opacity:1;" transform="translate(0 150)"/>
</clipPath>
<clipPath id="clip2_48_1086">
<rect width="1080" height="0.0001" fill="white" style="fill:white;fill-opacity:1;" transform="translate(0 1800)"/>
</clipPath>
<clipPath id="clip3_48_1086">
<rect width="1080" height="450" fill="white" style="fill:white;fill-opacity:1;" transform="translate(0 1800)"/>
</clipPath>
</defs>
</svg>
